
      <svg xmlns="http://www.w3.org/2000/svg" width="35" zoomAndPan="magnify" viewBox="0 0 900 900" height="35" preserveAspectRatio="xMidYMid meet"><defs><clipPath id="A"><path d="M74.563 37h750.75v826.363H74.563zm0 0" clip-rule="nonzero"></path></clipPath></defs><g clip-path="url(#A)"><path fill="#41a1d9" d="M449.938 37.02c-124.398 0-225.223 100.871-225.223 225.324 0 160.957 225.223 413.094 225.223 413.094s225.227-252.137 225.227-413.094c0-124.453-100.828-225.324-225.227-225.324zm0 144.863c44.445 0 80.43 36 80.43 80.461 0 44.426-36.023 80.465-80.43 80.465s-80.426-36-80.426-80.465 35.984-80.461 80.426-80.461zm-169.652 397.25C158.328 603.918 74.563 654.484 74.563 712.992c0 82.957 168.055 150.219 375.375 150.219s375.375-67.262 375.375-150.219c0-58.508-83.762-109.035-205.723-133.859-16.965 24.824-33.586 47.578-48.902 67.48 102.555 15.547 163.27 48.055 177.645 66.305-19.332 24.563-122.117 75.109-298.32 75.109l-.074.148-.07-.074c-176.203 0-278.953-50.512-298.324-75.109 14.379-18.289 75.055-50.867 177.645-66.379-15.316-19.941-31.934-42.695-48.902-67.48zm0 0"></path></g></svg>