<svg xmlns="http://www.w3.org/2000/svg" xmlns:xlink="http://www.w3.org/1999/xlink" width="3456" zoomAndPan="magnify" viewBox="0 0 2592 540.000001" height="720" preserveAspectRatio="xMidYMid meet" version="1.0"><defs><g/><clipPath id="84742dc99b"><path d="M 85.75 99.183594 L 396 99.183594 L 396 440 L 85.75 440 Z M 85.75 99.183594 " clip-rule="nonzero"/></clipPath></defs><g fill="#000000" fill-opacity="1"><g transform="translate(395.301868, 429.17733)"><g><path d="M 322.71875 -160.421875 C 322.71875 -125.429688 316.109375 -95.664062 302.890625 -71.125 C 289.679688 -46.582031 271.742188 -27.859375 249.078125 -14.953125 C 226.421875 -2.054688 200.890625 4.390625 172.484375 4.390625 C 143.972656 4.390625 118.382812 -2.082031 95.71875 -15.03125 C 73.050781 -27.988281 55.140625 -46.765625 41.984375 -71.359375 C 28.828125 -95.953125 22.25 -125.640625 22.25 -160.421875 C 22.25 -195.410156 28.828125 -225.175781 41.984375 -249.71875 C 55.140625 -274.257812 73.050781 -292.976562 95.71875 -305.875 C 118.382812 -318.78125 143.972656 -325.234375 172.484375 -325.234375 C 200.890625 -325.234375 226.421875 -318.78125 249.078125 -305.875 C 271.742188 -292.976562 289.679688 -274.257812 302.890625 -249.71875 C 316.109375 -225.175781 322.71875 -195.410156 322.71875 -160.421875 Z M 253.953125 -160.421875 C 253.953125 -194.460938 246.535156 -220.4375 231.703125 -238.34375 C 216.867188 -256.257812 197.128906 -265.21875 172.484375 -265.21875 C 147.835938 -265.21875 128.097656 -256.257812 113.265625 -238.34375 C 98.429688 -220.4375 91.015625 -194.460938 91.015625 -160.421875 C 91.015625 -126.472656 98.429688 -100.515625 113.265625 -82.546875 C 128.097656 -64.585938 147.835938 -55.609375 172.484375 -55.609375 C 197.128906 -55.609375 216.867188 -64.585938 231.703125 -82.546875 C 246.535156 -100.515625 253.953125 -126.472656 253.953125 -160.421875 Z M 253.953125 -160.421875 "/></g></g></g><g fill="#000000" fill-opacity="1"><g transform="translate(717.741089, 429.17733)"><g><path d="M 26.625 0 L 26.625 -240.625 L 90.234375 -240.625 L 90.234375 -198.171875 L 93.0625 -198.171875 C 98.070312 -212.378906 106.453125 -223.53125 118.203125 -231.625 C 129.953125 -239.71875 143.921875 -243.765625 160.109375 -243.765625 C 176.609375 -243.765625 190.65625 -239.664062 202.25 -231.46875 C 213.84375 -223.269531 221.570312 -212.171875 225.4375 -198.171875 L 227.9375 -198.171875 C 232.84375 -211.960938 241.742188 -223.007812 254.640625 -231.3125 C 267.546875 -239.613281 282.820312 -243.765625 300.46875 -243.765625 C 322.925781 -243.765625 341.175781 -236.632812 355.21875 -222.375 C 369.269531 -208.125 376.296875 -187.941406 376.296875 -161.828125 L 376.296875 0 L 309.71875 0 L 309.71875 -148.671875 C 309.71875 -162.035156 306.164062 -172.0625 299.0625 -178.75 C 291.957031 -185.4375 283.082031 -188.78125 272.4375 -188.78125 C 260.320312 -188.78125 250.867188 -184.914062 244.078125 -177.1875 C 237.285156 -169.457031 233.890625 -159.378906 233.890625 -146.953125 L 233.890625 0 L 169.1875 0 L 169.1875 -150.078125 C 169.1875 -161.878906 165.816406 -171.28125 159.078125 -178.28125 C 152.347656 -185.28125 143.5 -188.78125 132.53125 -188.78125 C 121.457031 -188.78125 112.160156 -184.734375 104.640625 -176.640625 C 97.128906 -168.546875 93.375 -157.8125 93.375 -144.4375 L 93.375 0 Z M 26.625 0 "/></g></g></g><g fill="#000000" fill-opacity="1"><g transform="translate(1097.513406, 429.17733)"><g><path d="M 93.375 -139.109375 L 93.375 0 L 26.625 0 L 26.625 -240.625 L 90.234375 -240.625 L 90.234375 -198.171875 L 93.0625 -198.171875 C 98.488281 -212.171875 107.441406 -223.269531 119.921875 -231.46875 C 132.398438 -239.664062 147.570312 -243.765625 165.4375 -243.765625 C 190.5 -243.765625 210.601562 -235.695312 225.75 -219.5625 C 240.894531 -203.425781 248.46875 -181.3125 248.46875 -153.21875 L 248.46875 0 L 181.71875 0 L 181.71875 -141.3125 C 181.832031 -156.03125 178.078125 -167.539062 170.453125 -175.84375 C 162.828125 -184.15625 152.328125 -188.3125 138.953125 -188.3125 C 125.484375 -188.3125 114.546875 -184 106.140625 -175.375 C 97.734375 -166.757812 93.476562 -154.671875 93.375 -139.109375 Z M 93.375 -139.109375 "/></g></g></g><g fill="#000000" fill-opacity="1"><g transform="translate(1349.304442, 429.17733)"><g><path d="M 26.625 0 L 26.625 -240.625 L 93.375 -240.625 L 93.375 0 Z M 60.15625 -271.65625 C 50.332031 -271.65625 41.867188 -274.96875 34.765625 -281.59375 C 27.671875 -288.226562 24.125 -296.191406 24.125 -305.484375 C 24.125 -314.785156 27.671875 -322.722656 34.765625 -329.296875 C 41.867188 -335.878906 50.332031 -339.171875 60.15625 -339.171875 C 70.070312 -339.171875 78.582031 -335.878906 85.6875 -329.296875 C 92.789062 -322.722656 96.34375 -314.785156 96.34375 -305.484375 C 96.34375 -296.191406 92.789062 -288.226562 85.6875 -281.59375 C 78.582031 -274.96875 70.070312 -271.65625 60.15625 -271.65625 Z M 60.15625 -271.65625 "/></g></g></g><g fill="#000000" fill-opacity="1"><g transform="translate(1446.797435, 429.17733)"><g><path d="M 27.890625 0 L 27.890625 -320.84375 L 95.71875 -320.84375 L 95.71875 -55.921875 L 233.265625 -55.921875 L 233.265625 0 Z M 27.890625 0 "/></g></g></g><g fill="#000000" fill-opacity="1"><g transform="translate(1674.621472, 429.17733)"><g><path d="M 135.359375 4.703125 C 111.023438 4.703125 90.003906 -0.488281 72.296875 -10.875 C 54.597656 -21.269531 40.941406 -35.789062 31.328125 -54.4375 C 21.722656 -73.082031 16.921875 -94.726562 16.921875 -119.375 C 16.921875 -144.226562 21.722656 -165.976562 31.328125 -184.625 C 40.941406 -203.269531 54.597656 -217.785156 72.296875 -228.171875 C 90.003906 -238.566406 111.023438 -243.765625 135.359375 -243.765625 C 159.691406 -243.765625 180.707031 -238.566406 198.40625 -228.171875 C 216.113281 -217.785156 229.769531 -203.269531 239.375 -184.625 C 248.988281 -165.976562 253.796875 -144.226562 253.796875 -119.375 C 253.796875 -94.726562 248.988281 -73.082031 239.375 -54.4375 C 229.769531 -35.789062 216.113281 -21.269531 198.40625 -10.875 C 180.707031 -0.488281 159.691406 4.703125 135.359375 4.703125 Z M 135.671875 -47 C 152.171875 -47 164.675781 -53.890625 173.1875 -67.671875 C 181.695312 -81.460938 185.953125 -98.851562 185.953125 -119.84375 C 185.953125 -140.832031 181.695312 -158.242188 173.1875 -172.078125 C 164.675781 -185.921875 152.171875 -192.84375 135.671875 -192.84375 C 118.859375 -192.84375 106.164062 -185.921875 97.59375 -172.078125 C 89.03125 -158.242188 84.75 -140.832031 84.75 -119.84375 C 84.75 -98.851562 89.03125 -81.460938 97.59375 -67.671875 C 106.164062 -53.890625 118.859375 -47 135.671875 -47 Z M 135.671875 -47 "/></g></g></g><g fill="#000000" fill-opacity="1"><g transform="translate(1922.809649, 429.17733)"><g><path d="M 135.359375 4.703125 C 110.710938 4.703125 89.535156 -0.539062 71.828125 -11.03125 C 54.128906 -21.53125 40.550781 -36.128906 31.09375 -54.828125 C 21.644531 -73.523438 16.921875 -95.039062 16.921875 -119.375 C 16.921875 -144.019531 21.695312 -165.664062 31.25 -184.3125 C 40.8125 -202.957031 54.414062 -217.523438 72.0625 -228.015625 C 89.71875 -238.515625 110.710938 -243.765625 135.046875 -243.765625 C 156.035156 -243.765625 174.441406 -239.953125 190.265625 -232.328125 C 206.085938 -224.703125 218.566406 -213.992188 227.703125 -200.203125 C 236.835938 -186.421875 241.878906 -170.234375 242.828125 -151.640625 L 179.84375 -151.640625 C 178.070312 -163.648438 173.398438 -173.335938 165.828125 -180.703125 C 158.253906 -188.066406 148.359375 -191.75 136.140625 -191.75 C 120.679688 -191.75 108.25 -185.535156 98.84375 -173.109375 C 89.445312 -160.679688 84.75 -143.082031 84.75 -120.3125 C 84.75 -97.332031 89.421875 -79.550781 98.765625 -66.96875 C 108.117188 -54.382812 120.578125 -48.09375 136.140625 -48.09375 C 147.628906 -48.09375 157.289062 -51.566406 165.125 -58.515625 C 172.957031 -65.460938 177.863281 -75.359375 179.84375 -88.203125 L 242.828125 -88.203125 C 241.773438 -69.816406 236.785156 -53.625 227.859375 -39.625 C 218.929688 -25.632812 206.632812 -14.75 190.96875 -6.96875 C 175.300781 0.8125 156.765625 4.703125 135.359375 4.703125 Z M 135.359375 4.703125 "/></g></g></g><g fill="#000000" fill-opacity="1"><g transform="translate(2159.40592, 429.17733)"><g><path d="M 95.25 4.546875 C 72.269531 4.546875 53.207031 -1.457031 38.0625 -13.46875 C 22.925781 -25.476562 15.359375 -43.390625 15.359375 -67.203125 C 15.359375 -85.171875 19.585938 -99.269531 28.046875 -109.5 C 36.503906 -119.738281 47.597656 -127.234375 61.328125 -131.984375 C 75.066406 -136.734375 89.875 -139.84375 105.75 -141.3125 C 126.632812 -143.394531 141.566406 -145.582031 150.546875 -147.875 C 159.535156 -150.175781 164.03125 -155.191406 164.03125 -162.921875 L 164.03125 -163.859375 C 164.03125 -173.785156 160.921875 -181.460938 154.703125 -186.890625 C 148.484375 -192.328125 139.6875 -195.046875 128.3125 -195.046875 C 116.289062 -195.046875 106.726562 -192.429688 99.625 -187.203125 C 92.53125 -181.984375 87.832031 -175.351562 85.53125 -167.3125 L 23.8125 -172.328125 C 28.40625 -194.253906 39.8125 -211.640625 58.03125 -224.484375 C 76.257812 -237.335938 99.789062 -243.765625 128.625 -243.765625 C 146.476562 -243.765625 163.1875 -240.941406 178.75 -235.296875 C 194.3125 -229.660156 206.867188 -220.863281 216.421875 -208.90625 C 225.984375 -196.945312 230.765625 -181.410156 230.765625 -162.296875 L 230.765625 0 L 167.46875 0 L 167.46875 -33.375 L 165.59375 -33.375 C 159.738281 -22.195312 150.988281 -13.082031 139.34375 -6.03125 C 127.695312 1.019531 113 4.546875 95.25 4.546875 Z M 114.359375 -41.515625 C 128.984375 -41.515625 140.992188 -45.769531 150.390625 -54.28125 C 159.796875 -62.789062 164.5 -73.363281 164.5 -86 L 164.5 -111.546875 C 161.882812 -109.765625 157.832031 -108.195312 152.34375 -106.84375 C 146.863281 -105.488281 141.015625 -104.3125 134.796875 -103.3125 C 128.585938 -102.320312 123.03125 -101.460938 118.125 -100.734375 C 106.425781 -99.054688 97 -95.765625 89.84375 -90.859375 C 82.6875 -85.953125 79.109375 -78.800781 79.109375 -69.40625 C 79.109375 -60.207031 82.425781 -53.257812 89.0625 -48.5625 C 95.695312 -43.863281 104.128906 -41.515625 114.359375 -41.515625 Z M 114.359375 -41.515625 "/></g></g></g><g fill="#000000" fill-opacity="1"><g transform="translate(2392.869162, 429.17733)"><g><path d="M 93.375 -320.84375 L 93.375 0 L 26.625 0 L 26.625 -320.84375 Z M 93.375 -320.84375 "/></g></g></g><g clip-path="url(#84742dc99b)"><path fill="#41a1d9" d="M 240.519531 99.246094 C 189.230469 99.246094 147.65625 140.820312 147.65625 192.109375 C 147.65625 258.445312 240.519531 362.359375 240.519531 362.359375 C 240.519531 362.359375 333.386719 258.445312 333.386719 192.109375 C 333.386719 140.820312 291.8125 99.246094 240.519531 99.246094 Z M 240.519531 158.949219 C 258.847656 158.949219 273.683594 173.785156 273.683594 192.109375 C 273.683594 210.421875 258.832031 225.273438 240.519531 225.273438 C 222.210938 225.273438 207.359375 210.4375 207.359375 192.109375 C 207.359375 173.785156 222.195312 158.949219 240.519531 158.949219 Z M 170.570312 322.671875 C 120.285156 332.886719 85.75 353.726562 85.75 377.839844 C 85.75 412.027344 155.039062 439.746094 240.519531 439.746094 C 326.003906 439.746094 395.292969 412.027344 395.292969 377.839844 C 395.292969 353.726562 360.757812 332.902344 310.472656 322.671875 C 303.476562 332.902344 296.625 342.277344 290.308594 350.480469 C 332.59375 356.886719 357.625 370.285156 363.554688 377.808594 C 355.582031 387.929688 313.203125 408.761719 240.550781 408.761719 L 240.519531 408.824219 L 240.492188 408.792969 C 167.839844 408.792969 125.476562 387.976562 117.488281 377.839844 C 123.417969 370.300781 148.433594 356.875 190.734375 350.480469 C 184.417969 342.261719 177.566406 332.886719 170.570312 322.671875 Z M 170.570312 322.671875 " fill-opacity="1" fill-rule="nonzero"/></g></svg>